<?xml version="1.0" encoding="UTF-8"?>
<svg id="Layer_2" data-name="Layer 2" xmlns="http://www.w3.org/2000/svg" viewBox="0 0 128.55 53.9">
  <defs>
    <style>
      .cls-1 {
        fill: #8b9a9f;
      }

      .cls-1, .cls-2, .cls-3 {
        stroke-width: 0px;
      }

      .cls-2 {
        fill: #803545;
      }

      .cls-3 {
        fill: #f1f1f1;
      }
    </style>
  </defs>
  <g id="Layer_1-2" data-name="Layer 1">
    <g>
      <path class="cls-1" d="M47.52,46.55c.89-2.81,1.65-5.24,2.45-7.77,1.58,1.21,2.58,8.42,1.77,11.82-1.75-2-.65-4.5-1.85-6.77-.59,1.96-1.05,3.6-1.59,5.21-.13.4-.53.71-.8,1.05-.34-.35-.83-.64-1-1.06-.6-1.46-1.1-2.97-1.73-4.72-1.09,2.07.35,4.48-1.56,6.07-.83-3.9-.02-7.66.73-11.98,2.49,2.39,2.02,5.46,3.59,8.15Z"/>
      <path class="cls-1" d="M113.33,38.89c.75.42,1.05.49,1.07.61.66,3.35.87,6.74-.79,9.82-.43.8-2.22,1.61-2.96,1.32-1.05-.42-2.27-1.76-2.43-2.85-.36-2.59-.16-5.25-.11-7.89,0-.33.46-.66.71-.98.23.34.65.68.66,1.03.07,2.16.05,4.32.05,6.48,0,1.37.36,2.5,1.98,2.45,1.5-.05,1.81-1.16,1.81-2.42,0-2.39,0-4.78,0-7.58Z"/>
      <path class="cls-1" d="M102.44,45.89c-.1,1.39-.19,2.79-.29,4.18-.17.01-.34.02-.51.03-.16-.32-.47-.63-.47-.95-.04-2.9-.05-5.8-.02-8.7.01-1.59,1.24-1.32,2.21-1.3,2.84.05,4.56,2.9,2.8,5.03-1.43,1.73-.84,2.83.21,4.18.28.37.58.8.63,1.23.03.24-.59.81-.67.77-.48-.27-1.04-.58-1.3-1.03-.69-1.21-1.24-2.5-1.85-3.76l-.74.32ZM104.22,40.45c-.27,0-.55-.01-.82-.02-.36.53-.98,1.03-1.02,1.58-.07.86-.57,2.36,1.06,2.22.72-.06,1.68-1,1.93-1.74.17-.5-.73-1.35-1.15-2.04Z"/>
      <path class="cls-1" d="M75.37,38.63c1.14,3.76.31,7.6.56,11.4l-.95.21c-.3-1-.67-1.99-.88-3.01-.11-.52.07-1.11.12-1.66-.92-.07-1.85-.27-2.74-.14-.32.05-.7.87-.75,1.38-.11,1.07-.04,2.17-.04,3.67-1.57-1.45-1.66-9.89-.27-11.7.11,1.24.29,2.11.25,2.97-.08,1.46.24,2.2,1.97,2.21,1.7,0,1.83-.8,1.79-2.11-.03-1.07.15-2.15.23-3.23.23,0,.46.01.69.02Z"/>
      <path class="cls-1" d="M28.79,49c-.24,1.3-.41,2.45-.67,3.58-.32,1.41-1.15,1.64-2.43.92.78-1.37.69-2.31-.76-3.32-3.45-2.42-3.27-8.23.17-10.67,1.72-1.22,3.56-.79,3.99.68-1.37.48-2.97.67-3.99,1.53-.75.64-1,2.17-1.02,3.31-.06,2.92.98,3.66,4.7,3.97Z"/>
      <path class="cls-1" d="M17.69,39.51c3.26,3.4,3.79,7.08,4.37,10.75-.25.12-.51.25-.76.37-.4-.76-.77-1.55-1.22-2.29-.31-.5-.75-1.31-1.11-1.3-.75.02-1.66.32-2.2.82-.65.6-.99,1.54-1.46,2.34l-.58-.27c.95-3.33,1.9-6.67,2.97-10.43ZM18.39,42.78s.05-.1.08-.15c-.02.06-.04.11-.06.17-.04.04-.08.08-.12.12.03-.05.07-.09.1-.14Z"/>
      <path class="cls-1" d="M95.98,45.65c0-.81,0-1.62,0-2.42,0-1.14.22-2.39-1.62-2.35-.27,0-.78-.74-.78-1.13,0-.29.63-.81,1.01-.83,1.47-.09,2.96-.1,4.44.01.39.03.74.58,1.11.9-.28.31-.54.84-.86.89-1.55.23-1.64,1.24-1.61,2.49.06,1.95.07,3.91-.03,5.85-.02.44-.59.85-.9,1.27-.25-.41-.68-.81-.72-1.24-.1-1.14-.03-2.29-.03-3.43h0Z"/>
      <path class="cls-1" d="M37.25,50.28c-1.59-.63-1.1-3.12-3.44-3.14-2.32-.02-1.24,3.17-3.67,2.87.27-.91.54-1.69.74-2.49.59-2.33,1.11-4.68,1.77-6.99.15-.52.8-.91,1.22-1.35.37.41.94.75,1.09,1.23.9,2.96,1.72,5.95,2.54,8.93.06.21-.12.48-.25.93ZM32.87,45.36h2.23c-.38-1.21-.68-2.16-1.16-3.66-.44,1.51-.71,2.43-1.07,3.66Z"/>
      <path class="cls-1" d="M13.2,50.34c-1.01-1.48-2.01-2.97-3.02-4.45-.15.05-.3.11-.45.16-.16,1.37-.31,2.73-.47,4.1-.32,0-.63-.02-.95-.03-.16-3.44-.04-6.88-.05-10.28,3.74-1.14,5.93.05,5.62,2.93-.04.33-.04.78-.24.96-2.07,1.79-1.02,3.54,0,5.32.14.25.13.59.18.89-.21.13-.41.27-.62.4ZM8.75,42.37c.94.91,1.41,1.76,1.97,1.82,1.17.14,1.99-.78,1.76-1.87-.14-.69-1-1.49-1.7-1.72-.36-.12-1.09.91-2.03,1.77Z"/>
      <path class="cls-1" d="M121.06,40.8c-.55-.13-1.15-.45-1.65-.34-.7.16-1.59.49-1.89,1.03-.22.39.23,1.41.67,1.85.69.69,1.75,1.02,2.45,1.71,1.28,1.26,1.19,2.92.33,4.26-.91,1.42-2.48,1.53-3.96.81-.42-.2-.65-.8-.97-1.22.13-.12.25-.24.38-.36.43.12.9.39,1.29.31.89-.18,1.74-.55,2.61-.84-.38-.82-.64-1.74-1.18-2.44-.38-.48-1.19-.6-1.73-.99-1.32-.95-1.72-2.79-.91-4.14.93-1.55,2.38-1.61,3.89-1.14.41.12.7.6,1.05.91-.12.19-.25.39-.37.58Z"/>
      <path class="cls-1" d="M79.32,40.72v2.97c1.14.21,2.17.4,3.2.59,0,.23,0,.47,0,.7-1.03.19-2.06.38-3.21.58v3.03c1.21.2,2.36.4,3.51.59-.02.32-.04.64-.06.96-1.39,0-2.78.07-4.15-.06-.27-.02-.65-.81-.66-1.25-.06-2.77-.1-5.54.03-8.3.02-.51.83-1.29,1.37-1.39,1-.18,2.08.05,3.13.11.01.29.02.57.03.86-1.03.19-2.05.38-3.19.6Z"/>
      <path class="cls-1" d="M122.24,40.01c.87-.74,5.25-1.25,5.97-.75.18.12.4.52.33.62-.2.3-.54.74-.8.72-1.67-.08-1.58,1.01-1.57,2.14.03,2.39,0,4.79,0,7.18-.23.08-.46.16-.7.24-.25-.52-.68-1.02-.72-1.56-.1-1.47-.03-2.95-.04-4.43q0-2.75-2.49-4.17Z"/>
      <path class="cls-1" d="M89.14,50.2c-1.25,0-2.51.07-3.75-.05-.36-.04-.95-.63-.95-.97-.03-3.21.05-6.43.11-9.64,0-.08.18-.16.61-.5.21.75.5,1.34.52,1.95.06,1.88.1,3.77-.01,5.64-.1,1.57.25,2.43,2.05,2.23.5-.06,1.06.35,1.59.54-.06.27-.12.53-.17.8Z"/>
      <path class="cls-1" d="M.48,46.7c.53.58.84,1.2,1.32,1.4.88.37,1.87.67,2.8.61.28-.02.5-1.3.71-2.01.15-.51.25-1.03.43-1.82,1.02,1.4,1.18,4.25.5,4.92-1.04,1.04-3.47.96-5.08-.17-1.35-.95-1.44-1.24-.67-2.93Z"/>
      <path class="cls-1" d="M63.42,40.37c-.25,2.16-.74,4.17-.66,6.15.11,2.87,2.62,2.63,4.7,2.79-.02.25-.03.5-.05.75-1.17.05-2.53.51-3.48.08-2.51-1.15-2.7-3.6-2.63-6.03.05-1.65.35-3.18,2.11-3.74Z"/>
      <path class="cls-1" d="M54.58,44.75c1.27.38,2.18.65,3.28.97-.07-1.21-.12-2.04-.17-2.86.23-.03.47-.06.7-.1.34,2.28,1.7,4.33,1.26,6.98-.69-3-2.52-3.34-5.2-2.32.05-1.08.09-1.93.12-2.68Z"/>
      <path class="cls-1" d="M55.47,42.1c.33-.99.66-1.98,1-2.97.27,0,.54-.02.81-.02.17.72.61,1.51.43,2.12-.16.57-.99.94-1.52,1.4-.24-.18-.48-.35-.72-.53Z"/>
      <path class="cls-1" d="M5.38,40.24c-1.26.22-2.51.45-4.21.75,1.31-2.05,2.78-1.41,4.11-1.4.04.22.07.43.11.65Z"/>
      <path class="cls-1" d="M64.65,29.34c.26-.09.53-.18.79-.27-.27.09-.53.18-.79.27Z"/>
      <path class="cls-1" d="M.84,41.27c.07.1.19.2.18.28-.01.11-.13.21-.2.31-.07-.1-.18-.2-.18-.3,0-.1.13-.19.2-.29Z"/>
      <g>
        <path class="cls-2" d="M96.99,8.87c-1.89,1.03-3.77,2.07-5.66,3.1-.24.08-.48.16-.73.23-.56.21-1.12.41-1.68.62-.93.22-1.86.44-2.79.67-4.11.78-7.93,2.32-11.52,4.47-.53.35-1.06.71-1.58,1.06-.89.71-1.77,1.43-2.66,2.14-.88.95-.26,1.43.57,1.84.09.08.17.18.24.28-.02.3-.04.6-.07.91-.44.26-.87.52-1.31.78-.11.24-.22.49-.32.73-1.35,1.12-2.7,2.24-4.04,3.37-.26.09-.53.18-.79.27-1.89.27-3.67.74-5.01,2.26-.23.26-.75.46-1.09.4-2.09-.34-4.17-.75-6.75-1.24,2.93-1.49,6.09-2.03,7.34-5.56-3.33-1.86-6.54-4.08-10.06-5.51-3.3-1.34-6.96-1.8-10.43-2.75-1.89-.51-3.73-1.21-5.58-1.87-.23-.08-.35-.48-.73-1.05,6.61.98,12.87,1.9,19.14,2.83,2.1.78,4.19,1.55,6.29,2.33,1.6.68,3.2,1.36,4.8,2.05,1.67-.41,3.34-.82,5.01-1.23.43-.07.87-.14,1.3-.21.09-.08.19-.16.28-.25,3.44-3.4,7.56-5.62,12.21-6.85,8.03-2.12,15.05-5.85,20.27-12.52.07-.09.23-.11.35-.16.27,3.13-.6,4.99-4.68,8.67-.11.07-.22.13-.33.2Z"/>
        <path class="cls-1" d="M57.78,19.17c-2.1-.78-4.2-1.55-6.29-2.33,2.1.78,4.2,1.55,6.29,2.33Z"/>
        <path class="cls-1" d="M67.58,19.99c-1.67.41-3.34.82-5.01,1.23,1.67-.41,3.34-.82,5.01-1.23Z"/>
        <path class="cls-1" d="M86.13,13.49c.93-.22,1.86-.44,2.79-.67-.93.22-1.86.44-2.79.67Z"/>
        <path class="cls-1" d="M73.03,19.02c.53-.35,1.06-.71,1.58-1.06-.53.35-1.06.71-1.58,1.06Z"/>
        <path class="cls-2" d="M71.12,24.19c.02-.3.04-.6.07-.91.2.27.4.55.6.82-.22.03-.45.06-.67.08Z"/>
        <path class="cls-1" d="M69.48,25.7c.11-.24.22-.49.32-.73-.11.24-.22.49-.32.73Z"/>
        <path class="cls-1" d="M90.6,12.21c.24-.08.48-.16.73-.23-.24.08-.48.16-.73.23Z"/>
        <path class="cls-1" d="M69.16,19.53c-.09.08-.19.16-.28.25.09-.08.19-.16.28-.25Z"/>
        <path class="cls-1" d="M96.99,8.87c.11-.07.22-.13.33-.2-.11.07-.22.13-.33.2Z"/>
      </g>
      <path class="cls-3" d="M18.41,42.8c.02-.06.04-.11.06-.17-.03.05-.05.1-.08.15l.02.02Z"/>
      <path class="cls-3" d="M18.39,42.78s-.07.09-.1.14c.04-.04.08-.08.12-.12,0,0-.02-.02-.02-.02Z"/>
    </g>
  </g>
</svg>