<?xml version="1.0" encoding="UTF-8"?>
<svg id="Layer_2" data-name="Layer 2" xmlns="http://www.w3.org/2000/svg" viewBox="0 0 72.61 97.64">
  <defs>
    <style>
      .cls-1 {
        fill: #ff6500;
        stroke-width: 0px;
      }
    </style>
  </defs>
  <g id="Layer_1-2" data-name="Layer 1">
    <path class="cls-1" d="M40.67,97.58c-2.79-16.36-2.74-16.42,10.3-24.67,3.71-2.35,7.29-4.9,10.93-7.36-.45-.82-.91-1.64-1.36-2.46-6.57,3.35-13.14,6.7-19.61,10-6.96-14,2.83-20.21,13.29-26.1-.65-.59-1.3-1.18-1.94-1.77-3.97,1.65-7.94,3.31-13.32,5.55-.4-8.25-.77-16.03-1.14-23.82-.97,0-1.94-.02-2.92-.03-.33,7.56-.67,15.12-1.04,23.6-4.85-1.89-9.01-3.51-13.18-5.13l-1.89,1.65c10.21,5.87,19.77,12.04,13.02,26.04-6.15-3.12-12.75-6.46-19.34-9.8-.52.79-1.05,1.58-1.57,2.36,3.64,2.46,7.21,5.02,10.92,7.37,12.89,8.17,13.07,8.54,10.26,24.64-25.76-3.66-39.85-28.64-27.6-52.11C12.64,29.88,24.2,15.99,35.13,0c15.08,17.45,29.72,32.22,35.94,52.64,6.47,21.23-8.23,42.58-30.41,44.94Z"/>
  </g>
</svg>