<?xml version="1.0" encoding="UTF-8"?>
<svg id="Layer_2" data-name="Layer 2" xmlns="http://www.w3.org/2000/svg" viewBox="0 0 45.08 25.72">
  <defs>
    <style>
      .cls-1 {
        fill: #ff6500;
        stroke-width: 0px;
      }
    </style>
  </defs>
  <g id="Layer_1-2" data-name="Layer 1">
    <path class="cls-1" d="M13.45,17.13c-2.81-3.8-8.85-3.05-10.76,1.29-.35.79-.52,1.61-.55,2.46-.02.72-.45,1.18-1.09,1.17-.64-.01-1.08-.49-1.05-1.21.13-3.15,1.55-5.55,4.24-7.19.18-.11.38-.21.57-.32-2.57-2.39-2.32-6.05-.2-8.11,2.12-2.05,5.46-2.08,7.62-.08,2.13,1.98,2.51,5.71-.04,8.1.94.73,1.89,1.47,2.84,2.2.98-.58,2.04-1.21,3.12-1.85-2.21-1.72-3.31-4.01-3.05-6.88.18-2,1.08-3.65,2.61-4.95,3.09-2.64,7.74-2.29,10.45.74,2.76,3.07,2.61,8.27-1.2,11.1,1.05.62,2.11,1.25,3.12,1.85.91-.71,1.86-1.46,2.83-2.22-1.36-1.3-2-2.96-1.71-4.92.21-1.44.92-2.61,2.07-3.51,2.21-1.72,5.44-1.46,7.35.56,1.92,2.03,2.21,5.53-.29,7.91.67.49,1.4.93,2.02,1.5,1.8,1.64,2.68,3.72,2.73,6.15.01.58-.34,1.01-.84,1.11-.51.1-1.02-.15-1.2-.63-.07-.19-.08-.4-.09-.6-.08-2.59-1.77-4.9-4.22-5.76-2.46-.87-5.2-.15-6.9,1.83-.06.07-.12.15-.19.24.32.47.66.93.96,1.42,1.14,1.85,1.69,3.87,1.73,6.03.01.65-.42,1.14-1.02,1.16-.62.03-1.08-.41-1.11-1.1-.08-2.46-.88-4.62-2.53-6.46-4.84-5.39-13.87-3.56-16.23,3.29-.36,1.03-.51,2.09-.56,3.18-.03.68-.49,1.13-1.11,1.1-.59-.03-1.04-.52-1.02-1.17.03-1.22.21-2.42.6-3.59.46-1.4,1.17-2.67,2.11-3.83ZM27.89,7.5c0-2.97-2.4-5.37-5.37-5.37-2.95,0-5.34,2.42-5.34,5.4,0,2.93,2.42,5.33,5.37,5.32,2.94,0,5.34-2.41,5.34-5.35ZM11.82,9.18c.03-1.82-1.5-3.36-3.36-3.38-1.8-.02-3.34,1.51-3.37,3.34-.03,1.83,1.51,3.39,3.35,3.4,1.84.01,3.36-1.49,3.38-3.36ZM33.26,9.17c.02,1.87,1.53,3.37,3.38,3.36,1.84-.01,3.37-1.57,3.35-3.4-.02-1.83-1.56-3.35-3.37-3.34-1.85.01-3.38,1.55-3.36,3.38Z"/>
  </g>
</svg>