<?xml version="1.0" encoding="UTF-8"?>
<svg id="Layer_2" data-name="Layer 2" xmlns="http://www.w3.org/2000/svg" viewBox="0 0 119.97 120">
  <defs>
    <style>
      .cls-1 {
        fill: #ff6500;
        stroke-width: 0px;
      }
    </style>
  </defs>
  <g id="Layer_1-2" data-name="Layer 1">
    <path class="cls-1" d="M18.42,69.23c5.59-1.5,11.2-3.02,16.86-4.54-1.29-7.91.59-14.87,5.57-20.94-3.11-3.11-6.18-6.18-9.26-9.26-9.5,7.31-21.47,4.53-27.5-3.17C-2,23.53-1.22,12.23,5.95,5.38c7.2-6.88,18.45-7.19,25.99-.76,7.37,6.28,9.55,17.93,2.52,26.95,3.07,3.08,6.15,6.15,9.26,9.26,8.08-6.34,16.96-7.65,26.7-3.74,1.21-2.19,2.42-4.39,3.67-6.65-2.32-1.98-3.77-4.4-4.25-7.4-1-6.2,3.21-12,9.63-13.2,5.9-1.1,12,3.06,13.21,9.01,1.74,8.55-5.78,15.77-14.26,13.68-.61-.15-1.01-.16-1.36.51-1.01,1.97-2.11,3.89-3.24,5.94,6.32,4.37,10.09,10.36,11.2,18.19,6.54-.24,13.08-.48,19.65-.73.57-1.97,1.55-3.58,3.22-4.73,3.55-2.45,8.47-1.46,10.82,2.2,2.36,3.67,1.12,8.65-2.68,10.8-3.79,2.14-8.65.76-10.56-3.11-.5-1.02-1.01-1.34-2.15-1.28-5.67.29-11.35.46-17.03.68-.36.01-.71.05-1.13.08-.34,5.74-2.28,10.8-5.89,15.12,3.13,3.1,6.23,6.17,9.36,9.26,9.47-7.3,21.46-4.31,27.38,3.42,5.98,7.81,5.12,19.06-1.98,25.74-7.39,6.96-18.61,7.18-26.16.52-7.26-6.41-9.1-17.83-2.34-26.55-3.11-3.09-6.2-6.18-9.32-9.28-7.62,6.02-16.17,7.45-25.67,4.06-1.34,2.68-2.69,5.35-4.06,8.1,3.48,2.6,5.46,6.03,5.76,10.33.23,3.25-.69,6.22-2.61,8.86-3.89,5.34-11.14,7.05-17.07,4.06-5.84-2.94-8.76-9.73-6.82-16.07,1.11-3.64,3.41-6.36,6.8-8.1,3.34-1.71,6.85-1.91,10.48-.82,1.37-2.73,2.69-5.38,4.07-8.13-5.05-3.17-8.64-7.5-10.75-13.17-5.62,1.51-11.2,3.01-16.89,4.54,0,3.33-1.11,6.21-3.83,8.3-1.78,1.38-3.83,2.01-6.08,1.98-4.41-.07-8.23-3.3-9.15-7.72-.9-4.34,1.42-8.81,5.51-10.64,4.55-2.03,8.91-.53,12.53,4.33ZM38.74,60.04c-.04,11.59,9.51,21.24,21.07,21.28,11.8.05,21.45-9.43,21.49-21.11.04-11.86-9.41-21.4-21.25-21.45-11.71-.05-21.27,9.5-21.3,21.28ZM38.63,112.28c5.31.05,9.71-4.22,9.77-9.47.06-5.38-4.19-9.79-9.51-9.86-5.37-.07-9.78,4.21-9.83,9.54-.05,5.37,4.23,9.75,9.57,9.8ZM13.66,18.95c-2.76-4.58-2.52-8.44.62-11.2,2.8-2.45,6.98-2.57,9.9-.26,1.48,1.17,2.4,2.68,2.79,4.53.54,2.59-.25,4.82-1.88,6.88,3.86,2.43,5.83,5.86,5.96,10.4,4.38-4.33,6.05-14.14-.75-20.92C23.87,1.99,13.29,2.5,7.54,9.4c-6.08,7.29-3.45,16.65.2,19.82.15-4.46,2.09-7.87,5.92-10.27ZM94.93,100.21c-2.77-4.47-2.56-8.31.53-11.12,2.74-2.49,6.96-2.66,9.9-.4,1.46,1.12,2.4,2.58,2.82,4.37.63,2.67-.16,4.98-1.83,7.12,3.86,2.43,5.82,5.87,5.96,10.41,4.64-4.73,5.89-14.76-1.2-21.37-6.47-6.03-17.03-5.21-22.54,1.75-4.63,5.86-4.4,16.28.44,19.5.14-4.45,2.1-7.86,5.92-10.26ZM81.37,13.6c-4.29-.02-7.78,3.42-7.8,7.7-.03,4.27,3.46,7.78,7.73,7.78,4.28,0,7.75-3.47,7.75-7.76,0-4.21-3.46-7.69-7.67-7.71ZM9.75,67.79c-3.16-.02-5.79,2.55-5.84,5.7-.05,3.21,2.54,5.86,5.76,5.9,3.14.03,5.8-2.56,5.84-5.7.04-3.22-2.55-5.88-5.76-5.9ZM11.97,27.14c4.79,0,9.49,0,14.19,0,.19,0,.39-.03.58-.05-.57-3.12-3.67-5.63-7.02-5.75-3.65-.12-6.83,2.2-7.75,5.8ZM108.05,108.37c-.92-3.57-4.12-5.9-7.76-5.76-3.36.13-6.45,2.66-7.01,5.76h14.77ZM90.7,112.34c5.62,5.23,15.04,4.79,19.85,0h-19.85ZM9.49,31.05c5.41,5.34,15.43,4.74,19.7,0H9.49ZM19.35,9.73c-2.1.01-3.83,1.77-3.82,3.87,0,2.16,1.8,3.9,3.96,3.86,2.08-.04,3.81-1.85,3.76-3.94-.04-2.11-1.79-3.81-3.91-3.79ZM116.12,58.15c.03-2.11-1.68-3.87-3.78-3.92-2.11-.04-3.89,1.65-3.95,3.75-.06,2.16,1.68,3.96,3.84,3.98,2.11.01,3.86-1.71,3.89-3.81ZM104.51,94.86c0-2.11-1.72-3.84-3.84-3.86-2.15-.02-3.93,1.78-3.89,3.93.04,2.11,1.78,3.81,3.9,3.8,2.09,0,3.84-1.78,3.83-3.87Z"/>
    <path class="cls-1" d="M64.72,60.85c4.99,2.15,7.94,5.79,8.73,11.11.08.52.11,1.04.1,1.57-.04,1.19-.78,1.98-1.99,1.98-7.7.02-15.39.02-23.09,0-1.3,0-2.05-.84-1.98-2.22.25-5.2,2.66-9.1,7.2-11.65.49-.27,1.01-.49,1.69-.81-3.5-2.26-5.33-5.37-4.99-9.51.22-2.69,1.48-4.9,3.57-6.62,4.06-3.32,10.18-2.67,13.54,1.42,3.74,4.56,2.73,10.05-2.78,14.73ZM69.4,71.61c-.76-4.64-5.14-7.95-10.03-7.69-4.29.23-8.44,3.9-8.66,7.69h18.69ZM60.03,46.5c-3.14-.03-5.8,2.58-5.82,5.71-.02,3.23,2.58,5.87,5.78,5.88,3.16,0,5.78-2.57,5.82-5.72.04-3.21-2.56-5.85-5.78-5.88Z"/>
  </g>
</svg>