<?xml version="1.0" encoding="UTF-8"?>
<svg id="Layer_2" data-name="Layer 2" xmlns="http://www.w3.org/2000/svg" viewBox="0 0 29.07 34.45">
  <defs>
    <style>
      .cls-1 {
        fill: #ff6500;
        stroke-width: 0px;
      }
    </style>
  </defs>
  <g id="Layer_1-2" data-name="Layer 1">
    <path class="cls-1" d="M14.81,0c.85.27,1.7.54,2.55.8,3.6,1.08,7.21,2.16,10.81,3.24.65.19.9.53.9,1.2,0,4.87,0,9.74,0,14.61,0,1.98-.73,3.72-1.85,5.31-1.33,1.89-3.03,3.42-4.87,4.8-2.27,1.7-4.7,3.12-7.25,4.35-.38.18-.74.18-1.13,0-3.41-1.65-6.62-3.6-9.43-6.15-1.59-1.44-2.98-3.05-3.84-5.05C.24,22.07,0,20.97,0,19.82,0,14.97,0,10.12,0,5.28c0-.72.24-1.03.94-1.24C5.28,2.73,9.62,1.43,13.97.13,14.07.1,14.17.04,14.27,0c.18,0,.36,0,.54,0ZM27.05,5.83c-.11-.04-.19-.07-.28-.1-3.98-1.19-7.95-2.39-11.93-3.57-.21-.06-.47-.04-.68.02-2.75.81-5.49,1.64-8.23,2.46-1.3.39-2.59.78-3.89,1.17,0,.11-.02.19-.02.28,0,4.58,0,9.15,0,13.73,0,.96.23,1.86.64,2.73.85,1.79,2.18,3.2,3.65,4.48,2.4,2.11,5.12,3.74,7.95,5.18.2.1.36.1.56,0,1.91-.96,3.77-2.04,5.52-3.27,1.86-1.31,3.59-2.77,4.98-4.59,1.16-1.51,1.78-3.19,1.75-5.14-.05-4.32-.02-8.64-.02-12.96v-.43Z"/>
  </g>
</svg>